<svg width="36" height="36" viewBox="0 0 36 36" fill="none" xmlns="http://www.w3.org/2000/svg">
<g clip-path="url(#clip0)">
<path d="M19.4047 28.0008L35.4249 11.9804C35.7957 11.6098 36 11.1152 36 10.5878C36 10.0604 35.7957 9.56576 35.4249 9.19522L34.2454 8.01543C33.4768 7.24773 32.2276 7.24773 31.4602 8.01543L18.0075 21.4682L4.53977 8.0005C4.16894 7.62997 3.67461 7.42538 3.14749 7.42538C2.61979 7.42538 2.12545 7.62997 1.75433 8.0005L0.575119 9.1803C0.204292 9.55112 3.70017e-06 10.0455 3.67712e-06 10.5729C3.65406e-06 11.1003 0.204292 11.5949 0.575119 11.9654L16.6099 28.0008C16.9819 28.3722 17.4786 28.5762 18.0066 28.5751C18.5366 28.5762 19.033 28.3722 19.4047 28.0008Z" fill="black"/>
</g>
<defs>
<clipPath id="clip0">
<rect width="36" height="36" fill="white" transform="translate(36) rotate(90)"/>
</clipPath>
</defs>
</svg>
