<svg width="36" height="36" viewBox="0 0 36 36" fill="none" xmlns="http://www.w3.org/2000/svg">
<path d="M31.3594 2.8125H28.125V1.125C28.125 0.503719 27.6214 0 27 0C26.3786 0 25.875 0.503719 25.875 1.125V2.8125H10.125V1.125C10.125 0.503719 9.62135 0 9 0C8.37865 0 7.875 0.503719 7.875 1.125V2.8125H4.64062C2.08174 2.8125 0 4.89424 0 7.45312V31.3594C0 33.9183 2.08174 36 4.64062 36H31.3594C33.9183 36 36 33.9183 36 31.3594V7.45312C36 4.89424 33.9183 2.8125 31.3594 2.8125ZM4.64062 5.0625H7.875V6.1875C7.875 6.80878 8.37865 7.3125 9 7.3125C9.62135 7.3125 10.125 6.80878 10.125 6.1875V5.0625H25.875V6.1875C25.875 6.80878 26.3786 7.3125 27 7.3125C27.6214 7.3125 28.125 6.80878 28.125 6.1875V5.0625H31.3594C32.6776 5.0625 33.75 6.13491 33.75 7.45312V10.125H2.25V7.45312C2.25 6.13491 3.32241 5.0625 4.64062 5.0625ZM31.3594 33.75H4.64062C3.32241 33.75 2.25 32.6776 2.25 31.3594V12.375H33.75V31.3594C33.75 32.6776 32.6776 33.75 31.3594 33.75Z" fill="white"/>
</svg>
