<svg width="40" height="40" viewBox="0 0 40 40" fill="none" xmlns="http://www.w3.org/2000/svg">
<rect width="40" height="40" rx="20" fill="#DC1637"/>
<path d="M17.828 13L15.828 15H12V27H28V15H24.172L22.172 13H17.828ZM17 11H23L25 13H29C29.2652 13 29.5196 13.1054 29.7071 13.2929C29.8946 13.4804 30 13.7348 30 14V28C30 28.2652 29.8946 28.5196 29.7071 28.7071C29.5196 28.8946 29.2652 29 29 29H11C10.7348 29 10.4804 28.8946 10.2929 28.7071C10.1054 28.5196 10 28.2652 10 28V14C10 13.7348 10.1054 13.4804 10.2929 13.2929C10.4804 13.1054 10.7348 13 11 13H15L17 11ZM20 26C18.5413 26 17.1424 25.4205 16.1109 24.3891C15.0795 23.3576 14.5 21.9587 14.5 20.5C14.5 19.0413 15.0795 17.6424 16.1109 16.6109C17.1424 15.5795 18.5413 15 20 15C21.4587 15 22.8576 15.5795 23.8891 16.6109C24.9205 17.6424 25.5 19.0413 25.5 20.5C25.5 21.9587 24.9205 23.3576 23.8891 24.3891C22.8576 25.4205 21.4587 26 20 26ZM20 24C20.9283 24 21.8185 23.6313 22.4749 22.9749C23.1313 22.3185 23.5 21.4283 23.5 20.5C23.5 19.5717 23.1313 18.6815 22.4749 18.0251C21.8185 17.3687 20.9283 17 20 17C19.0717 17 18.1815 17.3687 17.5251 18.0251C16.8687 18.6815 16.5 19.5717 16.5 20.5C16.5 21.4283 16.8687 22.3185 17.5251 22.9749C18.1815 23.6313 19.0717 24 20 24Z" fill="white"/>
</svg>
