<svg width="36" height="36" viewBox="0 0 36 36" fill="none" xmlns="http://www.w3.org/2000/svg">
<path d="M10.2811 23.469L6.66005 19.8481C5.95052 19.1401 5.01002 18.7501 4.00807 18.7501H1.50002C1.08602 18.7501 0.75 19.0861 0.75 19.5001C0.75 19.9141 1.08602 20.25 1.50002 20.25H4.008C4.59898 20.25 5.17948 20.49 5.59798 20.9085L7.93945 23.25H1.50002C1.08602 23.25 0.75 23.586 0.75 24C0.75 24.414 1.08602 24.75 1.50002 24.75H9.75C10.053 24.75 10.326 24.567 10.443 24.2865C10.56 24.0061 10.4955 23.6835 10.2811 23.469Z" fill="white"/>
<path d="M9.75004 27C9.33604 27 9.00002 27.336 9.00002 27.75V30C9.00002 30.414 8.66252 30.7501 8.25 30.7501H3.75C3.33748 30.7501 2.99998 30.414 2.99998 30V27C2.99998 26.586 2.66395 26.25 2.24995 26.25C1.83595 26.25 1.5 26.586 1.5 27V30C1.5 31.2406 2.50948 32.25 3.75 32.25H8.25C9.49052 32.25 10.5 31.2406 10.5 30V27.75C10.5 27.336 10.164 27 9.75004 27Z" fill="white"/>
<path d="M32.5965 14.3356C30.5295 13.2541 25.89 12.7501 18 12.7501C10.11 12.7501 5.47052 13.2541 3.40348 14.3356C1.0485 15.5656 0 17.6206 0 21.0001C0 24.2491 0.743977 27.0751 0.775477 27.1936C0.862453 27.5221 1.15945 27.7501 1.49998 27.7501H8.073L10.914 29.1706C11.019 29.2231 11.1345 29.2501 11.25 29.2501H24.75C24.8655 29.2501 24.981 29.2231 25.0845 29.1706L27.927 27.7501H34.5C34.8405 27.7501 35.1375 27.5221 35.2245 27.1936C35.256 27.0751 36 24.2491 36 21.0001C36 17.6206 34.9515 15.5656 32.5965 14.3356ZM33.9075 26.2501H27.7515C27.6345 26.2501 27.519 26.2771 27.4155 26.3296L24.573 27.7501H11.427L8.586 26.3296C8.48102 26.2771 8.3655 26.2501 8.24998 26.2501H2.09398C1.8855 25.2946 1.49998 23.2305 1.49998 21C1.49998 18.1755 2.25295 16.6291 4.09648 15.6645C5.89345 14.7255 10.5705 14.25 18 14.25C25.4295 14.25 30.1065 14.7256 31.9035 15.6645C33.747 16.629 34.5 18.1755 34.5 21C34.5 23.2305 34.1145 25.2946 33.9075 26.2501Z" fill="white"/>
<path d="M34.5001 23.2501H28.0606L30.4006 20.9086C30.8206 20.4901 31.3996 20.2501 31.9922 20.2501H34.5001C34.9141 20.2501 35.2502 19.9141 35.2502 19.5001C35.2502 19.0861 34.9141 18.7501 34.5001 18.7501H31.9922C30.9901 18.7501 30.0496 19.1401 29.3402 19.8481L25.7192 23.4691C25.5062 23.6836 25.4416 24.0061 25.5572 24.2866C25.6727 24.5672 25.9472 24.7501 26.2502 24.7501H34.5001C34.9141 24.7501 35.2502 24.4141 35.2502 24.0001C35.2501 23.586 34.9141 23.2501 34.5001 23.2501Z" fill="white"/>
<path d="M26.9297 19.1821C26.8052 18.918 26.5413 18.7501 26.2502 18.7501H9.75029C9.45927 18.7501 9.19532 18.918 9.07079 19.1821C8.94782 19.4445 8.98677 19.7566 9.17429 19.98L12.9243 24.48C13.0668 24.651 13.2783 24.75 13.5003 24.75H22.5003C22.7222 24.75 22.9337 24.651 23.0763 24.48L26.8262 19.98C27.0138 19.7565 27.0528 19.4445 26.9297 19.1821ZM22.1478 23.2501H13.8513L11.3507 20.25H24.6482L22.1478 23.2501Z" fill="white"/>
<path d="M32.9379 14.7015C32.0844 12.7395 29.2284 6.27302 28.2354 5.4285C26.9979 4.37698 23.4534 3.75 18.7494 3.75H17.2494C12.5455 3.75 9.00093 4.37698 7.76343 5.42702C6.77041 6.27155 3.91291 12.738 3.06093 14.7C2.89746 15.0811 3.07141 15.5221 3.45096 15.687C3.82896 15.852 4.27298 15.6795 4.43793 15.2985C6.13141 11.4001 8.20296 7.06805 8.73543 6.57157C9.31291 6.08107 11.7564 5.25005 17.2494 5.25005H18.7494C24.2424 5.25005 26.6859 6.08107 27.2604 6.56855C27.7959 7.06805 29.8674 11.3985 31.5609 15.2985C31.6839 15.582 31.9614 15.75 32.2494 15.75C32.3484 15.75 32.4519 15.7305 32.5479 15.6885C32.9274 15.5235 33.1014 15.081 32.9379 14.7015Z" fill="white"/>
<path d="M33.7501 26.25C33.3361 26.25 33.0001 26.586 33.0001 27V30C33.0001 30.414 32.6626 30.7501 32.2501 30.7501H27.7501C27.3375 30.7501 27 30.414 27 30V27.75C27 27.336 26.664 27 26.25 27C25.836 27 25.5 27.336 25.5 27.75V30C25.5 31.2406 26.5095 32.25 27.75 32.25H32.25C33.4905 32.25 34.5 31.2406 34.5 30V27C34.5001 26.586 34.1641 26.25 33.7501 26.25Z" fill="white"/>
</svg>
