<svg width="64" height="69" viewBox="0 0 64 69" fill="none" xmlns="http://www.w3.org/2000/svg">
<path d="M32 4.29297C47.4644 4.29297 60 17.7467 60 34.3438C60 50.9408 47.4644 64.3945 32 64.3945C16.5356 64.3945 4 50.9408 4 34.3438C4 17.7467 16.5356 4.29297 32 4.29297ZM20.8 37.3488L9.7736 37.3518C10.3974 42.6474 12.6448 47.5699 16.1618 51.3439C19.6789 55.118 24.2657 57.5293 29.2 58.1981V46.3641C26.9722 46.3641 24.8356 45.4142 23.2603 43.7236C21.685 42.0329 20.8 39.7398 20.8 37.3488ZM54.2264 37.3518L43.2 37.3488C43.2 39.7398 42.315 42.0329 40.7397 43.7236C39.1644 45.4142 37.0278 46.3641 34.8 46.3641L34.8028 58.1981C39.7366 57.5287 44.3228 55.1171 47.8393 51.3431C51.3557 47.5691 53.6027 42.647 54.2264 37.3518ZM37.6 34.3438H26.4V37.3488C26.4 38.1458 26.695 38.9102 27.2201 39.4737C27.7452 40.0373 28.4574 40.3539 29.2 40.3539H34.8C35.5426 40.3539 36.2548 40.0373 36.7799 39.4737C37.305 38.9102 37.6 38.1458 37.6 37.3488V34.3438ZM32 10.3031C26.5439 10.3032 21.2754 12.4403 17.1831 16.3133C13.0909 20.1863 10.4562 25.529 9.7736 31.3387H20.8C20.8 30.5417 21.095 29.7773 21.6201 29.2138C22.1452 28.6502 22.8574 28.3336 23.6 28.3336H40.4C41.1426 28.3336 41.8548 28.6502 42.3799 29.2138C42.905 29.7773 43.2 30.5417 43.2 31.3387H54.2264C53.5438 25.529 50.9091 20.1863 46.8169 16.3133C42.7246 12.4403 37.4561 10.3032 32 10.3031Z" fill="#47474D"/>
</svg>
