<svg width="64" height="64" viewBox="0 0 64 64" fill="none" xmlns="http://www.w3.org/2000/svg">
<path d="M32 11.2887L18.8 24.0465C16.1896 26.5697 14.412 29.7843 13.6919 33.2839C12.9718 36.7836 13.3415 40.411 14.7544 43.7075C16.1673 47.004 18.5599 49.8215 21.6296 51.8039C24.6992 53.7862 28.3082 54.8442 32 54.8442C35.6918 54.8442 39.3008 53.7862 42.3705 51.8039C45.4401 49.8215 47.8327 47.004 49.2456 43.7075C50.6585 40.411 51.0282 36.7836 50.3081 33.2839C49.588 29.7843 47.8104 26.5697 45.2 24.0465L32 11.2887ZM32 4L48.9707 20.4021C52.3271 23.6461 54.6129 27.7793 55.5389 32.2788C56.4649 36.7784 55.9896 41.4423 54.1731 45.6808C52.3566 49.9193 49.2804 53.542 45.3337 56.0908C41.3869 58.6396 36.7467 60 32 60C27.2533 60 22.6131 58.6396 18.6664 56.0908C14.7196 53.542 11.6434 49.9193 9.82693 45.6808C8.01042 41.4423 7.53512 36.7784 8.46114 32.2788C9.38716 27.7793 11.6729 23.6461 15.0293 20.4021L32 4Z" fill="#47474D"/>
</svg>
