<svg width="36" height="36" viewBox="0 0 36 36" fill="none" xmlns="http://www.w3.org/2000/svg">
<g clip-path="url(#clip0)">
<path d="M35.6177 14.6295L18.5531 2.1352C18.2241 1.89431 17.777 1.89431 17.4481 2.1352L0.383381 14.6295C-0.033432 14.9347 -0.123995 15.52 0.181232 15.9368C0.486459 16.3536 1.07181 16.4441 1.48855 16.139L18.0005 4.04917L34.5125 16.1389C34.679 16.2609 34.8725 16.3196 35.0643 16.3196C35.3523 16.3196 35.6365 16.1871 35.8198 15.9368C36.125 15.52 36.0345 14.9347 35.6177 14.6295Z" fill="white"/>
<path d="M31.0964 16.3507C30.5798 16.3507 30.161 16.7695 30.161 17.2861V32.1747H22.6782V24.0475C22.6782 21.4685 20.5799 19.3703 18.001 19.3703C15.4221 19.3703 13.3238 21.4686 13.3238 24.0475V32.1747H5.84095V17.2861C5.84095 16.7696 5.4221 16.3508 4.90558 16.3508C4.38907 16.3508 3.97021 16.7696 3.97021 17.2861V33.1102C3.97021 33.6268 4.38907 34.0456 4.90558 34.0456H14.2592C14.7511 34.0456 15.1536 33.6655 15.1909 33.183C15.1931 33.1612 15.1946 33.1373 15.1946 33.1102V24.0476C15.1946 22.5001 16.4535 21.2412 18.001 21.2412C19.5485 21.2412 20.8075 22.5002 20.8075 24.0476V33.1102C20.8075 33.1371 20.8089 33.1606 20.8111 33.1822C20.848 33.665 21.2506 34.0456 21.7428 34.0456H31.0964C31.613 34.0456 32.0318 33.6268 32.0318 33.1102V17.2861C32.0317 16.7695 31.6129 16.3507 31.0964 16.3507Z" fill="white"/>
</g>
<defs>
<clipPath id="clip0">
<rect width="36" height="36" fill="white"/>
</clipPath>
</defs>
</svg>
