<svg width="36" height="36" viewBox="0 0 36 36" fill="none" xmlns="http://www.w3.org/2000/svg">
<g clip-path="url(#clip0)">
<path d="M35.5601 33.4392L25.3227 23.2018C27.3057 20.7523 28.4997 17.6398 28.4997 14.2499C28.4997 6.39296 22.1067 0 14.2498 0C6.39289 0 0 6.39289 0 14.2498C0 22.1067 6.39296 28.4997 14.2499 28.4997C17.6398 28.4997 20.7523 27.3057 23.2018 25.3227L33.4392 35.5601C33.7317 35.8526 34.1156 35.9996 34.4997 35.9996C34.8837 35.9996 35.2677 35.8526 35.5602 35.5601C36.1467 34.9737 36.1467 34.0256 35.5601 33.4392ZM14.2499 25.4997C8.04592 25.4997 2.99999 20.4538 2.99999 14.2498C2.99999 8.04585 8.04592 2.99992 14.2499 2.99992C20.4538 2.99992 25.4998 8.04585 25.4998 14.2498C25.4998 20.4538 20.4538 25.4997 14.2499 25.4997Z" fill="#47474D"/>
</g>
<defs>
<clipPath id="clip0">
<rect width="36" height="36" fill="white"/>
</clipPath>
</defs>
</svg>
