<svg width="64" height="64" viewBox="0 0 64 64" fill="none" xmlns="http://www.w3.org/2000/svg">
<path d="M31.9986 47.6662C42.2104 47.6662 51.1423 51.7166 56 57.7601L50.8634 60C46.9092 55.6796 39.9377 52.8096 31.9986 52.8096C24.0595 52.8096 17.088 55.6796 13.1338 60L8 57.7575C12.8577 51.714 21.7868 47.6662 31.9986 47.6662ZM31.9986 4C35.6965 4 39.2429 5.35472 41.8578 7.76615C44.4726 10.1776 45.9416 13.4482 45.9416 16.8584V29.6644C45.9413 32.9779 44.5541 36.1635 42.0692 38.5567C39.5842 40.95 36.1933 42.3662 32.6037 42.51L31.9986 42.5228C28.3007 42.5228 24.7543 41.1681 22.1395 38.7567C19.5246 36.3453 18.0557 33.0747 18.0557 29.6644V16.8584C18.0559 13.5449 19.4431 10.3594 21.9281 7.96611C24.413 5.57286 27.8039 4.15667 31.3935 4.01286L31.9986 4ZM31.9986 9.14337C29.8647 9.14326 27.8115 9.89514 26.259 11.2452C24.7064 12.5952 23.772 14.4413 23.6468 16.4058L23.6328 16.8584V29.6644C23.6307 31.6726 24.4778 33.6025 25.9941 35.0439C27.5104 36.4853 29.5764 37.3246 31.7531 37.3836C33.9298 37.4425 36.0456 36.7164 37.651 35.3595C39.2564 34.0026 40.2248 32.1219 40.3504 30.117L40.3644 29.6644V16.8584C40.3644 14.8123 39.483 12.8499 37.9141 11.4031C36.3452 9.95621 34.2173 9.14337 31.9986 9.14337Z" fill="#47474D"/>
</svg>
