<svg width="64" height="69" viewBox="0 0 64 69" fill="none" xmlns="http://www.w3.org/2000/svg">
<path d="M32 4.29297C47.4644 4.29297 60 17.7467 60 34.3438C60 50.9408 47.4644 64.3945 32 64.3945C16.5356 64.3945 4 50.9408 4 34.3438C4 17.7467 16.5356 4.29297 32 4.29297ZM32 10.3031C19.6296 10.3031 9.6 21.0673 9.6 34.3438C9.6 47.6202 19.6296 58.3844 32 58.3844C44.3704 58.3844 54.4 47.6202 54.4 34.3438C54.4 21.0673 44.3704 10.3031 32 10.3031ZM42.7324 20.3311C43.396 19.8322 44.2976 19.9164 44.8688 20.5324C45.44 21.1454 45.5128 22.1131 45.0452 22.8163C38.9412 31.9697 35.5812 36.874 34.9708 37.5321C33.33 39.2901 30.67 39.2901 29.0292 37.5321C27.3912 35.7712 27.3912 32.9163 29.0292 31.1554C30.0764 30.0345 34.6432 26.4254 42.7324 20.3311ZM47.4 31.3387C48.9456 31.3387 50.2 32.6849 50.2 34.3438C50.2 36.0026 48.9456 37.3488 47.4 37.3488C45.8544 37.3488 44.6 36.0026 44.6 34.3438C44.6 32.6849 45.8544 31.3387 47.4 31.3387ZM16.6 31.3387C18.1456 31.3387 19.4 32.6849 19.4 34.3438C19.4 36.0026 18.1456 37.3488 16.6 37.3488C15.0544 37.3488 13.8 36.0026 13.8 34.3438C13.8 32.6849 15.0544 31.3387 16.6 31.3387ZM23.0904 20.5324C24.1824 21.7044 24.1824 23.6066 23.0904 24.7816C21.9984 25.9536 20.2232 25.9536 19.1312 24.7816C18.0392 23.6096 18.0392 21.7044 19.1312 20.5324C20.2232 19.3604 21.9956 19.3604 23.0904 20.5324ZM32 14.8107C33.5456 14.8107 34.8 16.157 34.8 17.8158C34.8 19.4746 33.5456 20.8209 32 20.8209C30.4544 20.8209 29.2 19.4746 29.2 17.8158C29.2 16.157 30.4544 14.8107 32 14.8107Z" fill="#47474D"/>
</svg>
