<svg width="36" height="36" viewBox="0 0 36 36" fill="none" xmlns="http://www.w3.org/2000/svg">
<path d="M30.728 23.272C28.7674 21.3116 26.4339 19.8603 23.8879 18.9817C26.6148 17.1036 28.4062 13.9604 28.4062 10.4062C28.4062 4.66826 23.738 0 18 0C12.262 0 7.59375 4.66826 7.59375 10.4062C7.59375 13.9604 9.38524 17.1036 12.1122 18.9817C9.56616 19.8603 7.23263 21.3116 5.2721 23.272C1.87235 26.6719 0 31.192 0 36H2.8125C2.8125 27.6256 9.62557 20.8125 18 20.8125C26.3744 20.8125 33.1875 27.6256 33.1875 36H36C36 31.192 34.1276 26.6719 30.728 23.272ZM18 18C13.8128 18 10.4062 14.5935 10.4062 10.4062C10.4062 6.219 13.8128 2.8125 18 2.8125C22.1872 2.8125 25.5938 6.219 25.5938 10.4062C25.5938 14.5935 22.1872 18 18 18Z" fill="white"/>
</svg>
